<svg xmlns="http://www.w3.org/2000/svg" xmlns:xlink="http://www.w3.org/1999/xlink" width="1342" zoomAndPan="magnify" viewBox="0 0 1006.5 821.999993" height="1096" preserveAspectRatio="xMidYMid meet" version="1.0"><defs><g/><clipPath id="9ded090a4f"><path d="M 91 0.203125 L 914 0.203125 L 914 821.796875 L 91 821.796875 Z M 91 0.203125 " clip-rule="nonzero"/></clipPath><clipPath id="5d852a5d1a"><path d="M 1.074219 0.203125 L 822.667969 0.203125 L 822.667969 821.796875 L 1.074219 821.796875 Z M 1.074219 0.203125 " clip-rule="nonzero"/></clipPath><clipPath id="70a7568faf"><path d="M 411.871094 0.203125 C 184.996094 0.203125 1.074219 184.125 1.074219 411 C 1.074219 637.875 184.996094 821.796875 411.871094 821.796875 C 638.746094 821.796875 822.667969 637.875 822.667969 411 C 822.667969 184.125 638.746094 0.203125 411.871094 0.203125 Z M 411.871094 0.203125 " clip-rule="nonzero"/></clipPath><clipPath id="e3d0d2b6ab"><path d="M 0.0742188 0.203125 L 821.667969 0.203125 L 821.667969 821.796875 L 0.0742188 821.796875 Z M 0.0742188 0.203125 " clip-rule="nonzero"/></clipPath><clipPath id="35e505b35b"><path d="M 410.871094 0.203125 C 183.996094 0.203125 0.0742188 184.125 0.0742188 411 C 0.0742188 637.875 183.996094 821.796875 410.871094 821.796875 C 637.746094 821.796875 821.667969 637.875 821.667969 411 C 821.667969 184.125 637.746094 0.203125 410.871094 0.203125 Z M 410.871094 0.203125 " clip-rule="nonzero"/></clipPath><clipPath id="bbf955b201"><rect x="0" width="822" y="0" height="822"/></clipPath><clipPath id="d0889384f8"><path d="M 175 0.203125 L 649 0.203125 L 649 198 L 175 198 Z M 175 0.203125 " clip-rule="nonzero"/></clipPath><clipPath id="ea7e19ef01"><rect x="0" width="474" y="0" height="198"/></clipPath><clipPath id="7d28bc1771"><rect x="0" width="823" y="0" height="822"/></clipPath></defs><g clip-path="url(#9ded090a4f)"><g transform="matrix(1, 0, 0, 1, 91, 0.000000000000117573)"><g clip-path="url(#7d28bc1771)"><g clip-path="url(#5d852a5d1a)"><g clip-path="url(#70a7568faf)"><g transform="matrix(1, 0, 0, 1, 1, 0.000000000000117573)"><g clip-path="url(#bbf955b201)"><g clip-path="url(#e3d0d2b6ab)"><g clip-path="url(#35e505b35b)"><path fill="#0097b2" d="M 0.0742188 0.203125 L 821.667969 0.203125 L 821.667969 821.796875 L 0.0742188 821.796875 Z M 0.0742188 0.203125 " fill-opacity="1" fill-rule="nonzero"/></g></g></g></g></g></g><path fill="#91bc5e" d="M 644.335938 452.210938 C 636.582031 438.320312 617.160156 431.589844 603.441406 439.515625 C 610.855469 423.066406 605.914062 401.933594 592.027344 390.429688 C 578.140625 378.839844 556.414062 377.988281 541.589844 388.300781 C 544.148438 386.511719 534.945312 371.339844 533.667969 369.550781 C 530.078125 364.675781 525.550781 360.488281 520.433594 357.203125 C 535.148438 357.820312 550.042969 354.605469 562.378906 346.628906 C 575.667969 338.019531 585.464844 323.449219 587.425781 307.769531 C 587.765625 305.382812 587.851562 302.996094 587.765625 300.523438 C 587.683594 298.90625 587.511719 297.285156 587.253906 295.667969 C 584.785156 279.136719 572.429688 264.050781 556.246094 260.304688 C 575.753906 252.460938 582.738281 227.917969 581.546875 206.871094 C 580.695312 192.980469 576.691406 178.066406 565.699219 169.546875 C 550.453125 157.785156 528.640625 162.558594 510.066406 167.925781 C 515.179688 147.304688 494.648438 124.890625 473.691406 128.214844 C 468.578125 129.066406 463.976562 130.941406 459.804688 133.667969 C 449.496094 118.328125 427.171875 112.449219 409.710938 119.609375 C 390.792969 127.191406 378.527344 147.046875 376.3125 167.328125 C 364.300781 154.121094 344.363281 149.773438 327.410156 154.972656 C 321.703125 156.675781 316.417969 159.574219 311.820312 163.496094 C 293.757812 179.089844 291.117188 209.425781 306.28125 227.917969 C 300.828125 228.261719 295.460938 229.878906 290.691406 232.4375 C 278.679688 238.828125 269.734375 251.269531 268.710938 264.90625 C 267.699219 278.230469 274.417969 291.4375 284.886719 299.660156 C 282.058594 304.238281 279.601562 309.066406 277.570312 313.90625 C 254.566406 300.867188 223.558594 302.398438 203.535156 319.613281 C 190.84375 330.523438 183.941406 347.652344 184.539062 364.183594 C 184.792969 373.726562 187.519531 383.101562 192.972656 390.941406 C 186.667969 394.265625 180.875 398.78125 176.019531 404.066406 C 163.410156 417.613281 156.59375 436.363281 160.003906 454.429688 C 164.773438 479.484375 191.523438 499.253906 216.402344 493.371094 C 214.269531 508.628906 212.480469 525.585938 221.511719 538.113281 C 227.648438 546.71875 237.871094 551.40625 248.179688 553.707031 C 269.050781 558.480469 291.882812 554.21875 309.6875 542.289062 C 310.710938 549.703125 317.78125 555.15625 325.109375 556.347656 C 332.523438 557.625 340.019531 555.328125 346.75 552.171875 C 361.824219 545.050781 373.851562 532.839844 381.980469 518.386719 C 383.679688 525.515625 386.269531 532.429688 389.859375 538.878906 C 396.164062 550.128906 405.191406 560.097656 416.867188 565.550781 C 428.539062 570.921875 443.019531 571.089844 453.839844 564.101562 C 454.605469 583.023438 473.179688 598.617188 492.09375 598.363281 C 511.089844 598.105469 528.300781 583.703125 534.265625 565.722656 C 537.925781 574.585938 548.660156 578.933594 558.117188 577.652344 C 567.660156 576.289062 575.925781 570.496094 582.824219 563.933594 C 593.050781 554.132812 601.140625 539.136719 600.035156 525.839844 C 599.609375 520.898438 597.90625 516.210938 594.582031 512.035156 C 610.429688 513.230469 627.125 508.03125 637.859375 496.355469 C 643.996094 489.625 647.746094 480.589844 648.425781 471.640625 C 648.851562 464.824219 647.574219 458.09375 644.335938 452.210938 Z M 644.335938 452.210938 " fill-opacity="1" fill-rule="nonzero"/><path fill="#789b45" d="M 268.710938 264.90625 C 269.734375 251.269531 278.679688 238.828125 290.691406 232.4375 C 300.148438 259.960938 323.152344 281.949219 348.367188 297.457031 C 391.648438 323.960938 444.042969 335.292969 494.476562 328.988281 C 527.363281 324.898438 559.226562 313.394531 587.253906 295.667969 C 587.511719 297.285156 587.683594 298.90625 587.765625 300.527344 C 587.851562 302.996094 587.765625 305.382812 587.425781 307.769531 C 585.464844 323.449219 575.667969 338.019531 562.378906 346.628906 C 546.957031 356.597656 527.535156 359.242188 509.472656 356.085938 C 506.917969 355.660156 504.191406 355.148438 501.804688 356.171875 C 499.503906 357.28125 498.140625 359.667969 496.777344 361.882812 C 487.40625 377.222656 470.707031 387.957031 452.902344 390.175781 C 435.011719 392.476562 416.269531 386.167969 403.320312 373.640625 C 401.53125 371.851562 399.742188 369.976562 397.355469 369.210938 C 393.777344 368.015625 389.945312 369.808594 386.535156 371.339844 C 364.894531 380.96875 338.402344 381.824219 318.550781 368.957031 C 298.699219 356.003906 288.816406 327.792969 300.234375 307.171875 C 281.488281 303.082031 267.261719 283.992188 268.710938 264.90625 Z M 549.257812 532.0625 C 512.367188 533.339844 474.882812 527.289062 441.402344 511.78125 C 432.796875 507.773438 424.449219 503.171875 417.207031 497.039062 C 404.257812 486.214844 395.738281 471.132812 388.496094 455.792969 C 388.238281 456.304688 388.070312 456.898438 387.8125 457.410156 C 384.40625 465.847656 381.765625 475.136719 380.488281 484.167969 C 380.375 484.976562 380.328125 485.789062 380.234375 486.597656 C 341.75 495.570312 301.054688 495.402344 262.746094 485.363281 C 254.910156 483.316406 247.15625 480.84375 239.746094 477.609375 C 222.109375 469.851562 206.859375 457.15625 195.441406 441.730469 C 190.757812 435.339844 184.28125 418.039062 176.019531 404.066406 C 163.410156 417.613281 156.59375 436.363281 160.003906 454.429688 C 164.773438 479.484375 191.523438 499.253906 216.402344 493.371094 C 214.269531 508.628906 212.480469 525.585938 221.511719 538.113281 C 227.648438 546.71875 237.871094 551.40625 248.179688 553.707031 C 269.050781 558.480469 291.882812 554.21875 309.6875 542.289062 C 310.710938 549.703125 317.785156 555.15625 325.109375 556.347656 C 332.523438 557.625 340.019531 555.328125 346.75 552.171875 C 361.824219 545.050781 373.851562 532.839844 381.980469 518.386719 C 383.679688 525.515625 386.269531 532.429688 389.859375 538.878906 C 396.164062 550.128906 405.191406 560.097656 416.867188 565.550781 C 428.539062 570.921875 443.019531 571.089844 453.839844 564.101562 C 454.605469 583.023438 473.179688 598.617188 492.09375 598.363281 C 511.089844 598.105469 528.300781 583.703125 534.265625 565.722656 C 537.925781 574.585938 548.660156 578.933594 558.117188 577.652344 C 567.660156 576.289062 575.925781 570.496094 582.824219 563.933594 C 593.050781 554.132812 601.140625 539.136719 600.035156 525.839844 C 583.335938 529.335938 566.382812 531.464844 549.257812 532.0625 Z M 549.257812 532.0625 " fill-opacity="1" fill-rule="nonzero"/><path fill="#a47052" d="M 498.070312 480.117188 C 484.015625 491.453125 472.34375 505.34375 460.753906 519.148438 C 450.703125 531.078125 440.648438 543.09375 430.597656 555.023438 C 425.398438 561.246094 422.078125 564.738281 421.820312 572.921875 L 421.820312 575.734375 C 421.652344 582.804688 421.566406 589.964844 421.566406 597.121094 C 421.308594 629.417969 421.652344 661.71875 421.992188 694.015625 C 422.503906 735.089844 423.015625 776.078125 423.523438 817.15625 C 403.589844 815.875 383.570312 816.984375 363.71875 820.308594 C 362.609375 820.308594 370.109375 664.527344 371.046875 649.445312 C 373.175781 615.699219 376.414062 581.867188 378.285156 548.035156 C 379.308594 531.164062 379.90625 514.207031 379.90625 497.332031 C 379.820312 488.382812 379.820312 479.351562 378.710938 470.488281 C 377.691406 462.734375 375.984375 455.148438 374.195312 447.566406 C 371.472656 435.464844 368.660156 423.277344 364.484375 411.601562 C 360.140625 399.332031 354.347656 387.65625 348.042969 376.324219 C 344.550781 370.101562 338.246094 356.636719 346.933594 351.355469 C 356.476562 360.558594 364.484375 371.292969 370.617188 382.96875 C 373.34375 388.167969 376.582031 392.855469 379.308594 398.054688 C 381.269531 401.800781 387.828125 410.835938 387.828125 415.183594 C 389.53125 390.300781 391.152344 365.414062 392.515625 340.445312 C 393.28125 325.875 393.535156 209.636719 405.378906 215.433594 C 410.660156 217.988281 411.683594 271.164062 412.449219 280.625 C 414.664062 307.382812 416.878906 334.140625 419.09375 360.898438 C 421.652344 390.894531 424.121094 420.890625 424.632812 451.230469 C 424.972656 472.875 424.292969 494.605469 423.523438 516.25 C 423.695312 516.082031 423.867188 515.910156 424.121094 515.738281 C 446.441406 497.503906 472.425781 482.84375 497.472656 468.613281 C 497.644531 472.449219 497.902344 476.28125 498.070312 480.117188 Z M 498.070312 480.117188 " fill-opacity="1" fill-rule="nonzero"/><g clip-path="url(#d0889384f8)"><g transform="matrix(1, 0, 0, 1, 175, 0.000000000000117573)"><g clip-path="url(#ea7e19ef01)"><g fill="#ffffff" fill-opacity="1"><g transform="translate(59.012471, 166.469999)"><g><path d="M 19.15625 -104.21875 L 25.671875 -92.125 L 4.640625 -80.796875 L 37.328125 -20.109375 L 23 -12.390625 L -9.6875 -73.078125 L -30.6875 -61.765625 L -37.203125 -73.859375 Z M 19.15625 -104.21875 "/></g></g></g><g fill="#ffffff" fill-opacity="1"><g transform="translate(121.583937, 134.667562)"><g><path d="M 15.28125 -4.640625 C 13.382812 -3.992188 11.582031 -3.804688 9.875 -4.078125 C 8.175781 -4.359375 6.707031 -5.046875 5.46875 -6.140625 C 4.238281 -7.242188 3.332031 -8.65625 2.75 -10.375 C 2.175781 -12.09375 2.039062 -13.757812 2.34375 -15.375 C 2.65625 -16.988281 3.398438 -18.429688 4.578125 -19.703125 C 5.753906 -20.984375 7.289062 -21.945312 9.1875 -22.59375 C 11.113281 -23.238281 12.925781 -23.421875 14.625 -23.140625 C 16.332031 -22.859375 17.800781 -22.164062 19.03125 -21.0625 C 20.269531 -19.96875 21.175781 -18.566406 21.75 -16.859375 C 22.632812 -14.253906 22.5 -11.8125 21.34375 -9.53125 C 20.1875 -7.25 18.164062 -5.617188 15.28125 -4.640625 Z M 15.28125 -4.640625 "/></g></g></g><g fill="#ffffff" fill-opacity="1"><g transform="translate(151.630665, 121.433526)"><g><path d="M 57.046875 -59.3125 L 53.09375 -90.15625 L 69.234375 -92.21875 L 79.75 -10.21875 L 63.609375 -8.15625 L 58.828125 -45.5 L 22.09375 -40.78125 L 26.875 -3.4375 L 10.65625 -1.359375 L 0.140625 -83.359375 L 16.359375 -85.4375 L 20.3125 -54.59375 Z M 57.046875 -59.3125 "/></g></g></g><g fill="#ffffff" fill-opacity="1"><g transform="translate(242.648214, 112.772253)"><g><path d="M 15.875 1.65625 C 13.882812 1.519531 12.15625 0.988281 10.6875 0.0625 C 9.226562 -0.863281 8.144531 -2.066406 7.4375 -3.546875 C 6.726562 -5.035156 6.4375 -6.6875 6.5625 -8.5 C 6.695312 -10.300781 7.21875 -11.882812 8.125 -13.25 C 9.039062 -14.625 10.289062 -15.664062 11.875 -16.375 C 13.457031 -17.09375 15.242188 -17.382812 17.234375 -17.25 C 19.265625 -17.101562 21.007812 -16.566406 22.46875 -15.640625 C 23.9375 -14.722656 25.023438 -13.519531 25.734375 -12.03125 C 26.441406 -10.539062 26.726562 -8.894531 26.59375 -7.09375 C 26.394531 -4.34375 25.320312 -2.140625 23.375 -0.484375 C 21.425781 1.160156 18.925781 1.875 15.875 1.65625 Z M 15.875 1.65625 "/></g></g></g><g fill="#ffffff" fill-opacity="1"><g transform="translate(278.084936, 115.361972)"><g><path d="M 26.578125 5.265625 L 10.546875 2.09375 L 26.625 -79 L 42.65625 -75.828125 Z M 26.578125 5.265625 "/></g></g></g><g fill="#ffffff" fill-opacity="1"><g transform="translate(318.660364, 123.821301)"><g><path d="M 14.984375 5.5 C 13.085938 4.875 11.539062 3.929688 10.34375 2.671875 C 9.15625 1.421875 8.398438 -0.0078125 8.078125 -1.625 C 7.753906 -3.238281 7.878906 -4.90625 8.453125 -6.625 C 9.015625 -8.34375 9.90625 -9.753906 11.125 -10.859375 C 12.351562 -11.960938 13.820312 -12.664062 15.53125 -12.96875 C 17.238281 -13.269531 19.039062 -13.109375 20.9375 -12.484375 C 22.863281 -11.847656 24.425781 -10.90625 25.625 -9.65625 C 26.820312 -8.40625 27.578125 -6.972656 27.890625 -5.359375 C 28.210938 -3.742188 28.09375 -2.078125 27.53125 -0.359375 C 26.664062 2.253906 25.082031 4.125 22.78125 5.25 C 20.476562 6.375 17.878906 6.457031 14.984375 5.5 Z M 14.984375 5.5 "/></g></g></g><g fill="#ffffff" fill-opacity="1"><g transform="translate(351.138985, 132.974298)"><g><path d="M 31.75 18.3125 C 26.695312 15.613281 22.53125 12.585938 19.25 9.234375 C 15.976562 5.878906 13.570312 2.488281 12.03125 -0.9375 C 10.5 -4.375 9.679688 -7.675781 9.578125 -10.84375 L 22.671875 -16.28125 L 23.90625 -15.625 C 24.363281 -11.195312 25.765625 -7.113281 28.109375 -3.375 C 30.460938 0.351562 33.898438 3.425781 38.421875 5.84375 C 42.285156 7.90625 45.628906 8.644531 48.453125 8.0625 C 51.285156 7.488281 53.46875 5.765625 55 2.890625 C 55.925781 1.160156 56.382812 -0.453125 56.375 -1.953125 C 56.363281 -3.453125 55.84375 -5.003906 54.8125 -6.609375 C 53.789062 -8.222656 52.195312 -10 50.03125 -11.9375 L 41.796875 -19.09375 C 36.046875 -24.082031 32.492188 -29.171875 31.140625 -34.359375 C 29.785156 -39.546875 30.59375 -44.921875 33.5625 -50.484375 C 35.757812 -54.597656 38.722656 -57.664062 42.453125 -59.6875 C 46.191406 -61.71875 50.488281 -62.546875 55.34375 -62.171875 C 60.207031 -61.796875 65.382812 -60.144531 70.875 -57.21875 C 76.488281 -54.207031 80.90625 -50.894531 84.125 -47.28125 C 87.351562 -43.664062 89.53125 -39.585938 90.65625 -35.046875 L 78.296875 -29.09375 L 77.0625 -29.75 C 76.144531 -33.007812 74.644531 -35.890625 72.5625 -38.390625 C 70.476562 -40.890625 67.722656 -43.054688 64.296875 -44.890625 C 60.335938 -46.992188 56.953125 -47.898438 54.140625 -47.609375 C 51.335938 -47.316406 49.28125 -45.941406 47.96875 -43.484375 C 46.738281 -41.191406 46.484375 -38.972656 47.203125 -36.828125 C 47.929688 -34.691406 49.863281 -32.296875 53 -29.640625 L 61.515625 -22.53125 C 67.804688 -17.25 71.59375 -11.96875 72.875 -6.6875 C 74.164062 -1.40625 73.273438 4.109375 70.203125 9.859375 C 67.765625 14.410156 64.660156 17.851562 60.890625 20.1875 C 57.128906 22.519531 52.769531 23.554688 47.8125 23.296875 C 42.863281 23.046875 37.507812 21.382812 31.75 18.3125 Z M 31.75 18.3125 "/></g></g></g></g></g></g></g></g></g></svg>